<svg preserveAspectRatio="xMidYMid meet" data-bbox="0.804 66.322 199.082 47.66" xmlns="http://www.w3.org/2000/svg" viewBox="0.804 66.322 199.082 47.66" height="200" width="200" data-type="shape" role="presentation" aria-hidden="true" aria-label="">
    <g>
        <g clip-path="url(#52d56544-4cf4-4eed-9b84-17e1580f548c_comp-lzchk37e)">
            <path d="M192.905 107.767q-.314-.924-.708-2.034c-1.317-3.713-3.203-8.703-5.161-13.778-3.918-10.154-8.079-20.52-8.463-21.438a3 3 0 1 1 5.534-2.317c.418.999 4.603 11.427 8.527 21.595 1.962 5.086 3.872 10.138 5.218 13.931.67 1.888 1.217 3.512 1.562 4.686.166.567.317 1.133.398 1.605.033.195.097.601.065 1.053a3.2 3.2 0 0 1-.38 1.314c-.406.743-1.29 1.559-2.605 1.59-5.134.122-10.841-1.265-16.118-2.649q-.974-.256-1.926-.509-1.05-.278-2.074-.547c-6.853.804-13.838 1.085-20.753 1.215-2.984.056-5.942.084-8.873.111-6.415.061-12.702.12-18.857.469l-1.971.117c-3.586.216-9.707.585-12.646.615a22 22 0 0 1-1.881-.045c-.398-.031-1.093-.097-1.73-.371-.254-.11-1.198-.536-1.685-1.652-.625-1.435.014-2.646.405-3.15.358-.461.769-.727.944-.836.222-.137.438-.241.607-.317 1.004-.449 2.779-.893 3.522-1.079l.187-.047c17.198-4.364 35.054-4.767 52.36-3.216 3.421.306 7.13 1.154 10.781 2.092l.112-.014c-3.2-1.269-6.965-2.557-10.114-3.634a292 292 0 0 1-3.917-1.358C111.433 80.573 59.029 77.696 4.377 88.353a3 3 0 0 1-1.148-5.89C58.848 71.62 112.356 74.53 165.29 93.523c.94.337 2.18.761 3.589 1.243 3.47 1.188 7.961 2.724 11.488 4.164a50 50 0 0 1 3.472 1.551c.976.491 1.97 1.058 2.719 1.691.363.306.863.787 1.215 1.454.393.743.682 1.916.11 3.15l-.05.103c1.765.387 3.46.697 5.071.889m.993 3.264v-.002c.004.035.006.039 0 .002m-81.849-4.285.019.003z" clip-rule="evenodd" fill="#CE8714" fill-rule="evenodd"></path>
        </g>
        <defs fill="#CE8714">
            <clipPath id="52d56544-4cf4-4eed-9b84-17e1580f548c_comp-lzchk37e">
                <path fill="#CE8714" d="M200 0v200H0V0z"></path>
            </clipPath>
        </defs>
    </g>
</svg>