<svg preserveAspectRatio="xMidYMid meet" data-bbox="10 10 180 179.987" xmlns="http://www.w3.org/2000/svg" viewBox="10 10 180 179.987" height="150" width="200" data-type="shape" role="presentation" aria-hidden="true" aria-label="" fill="#b3f5a0">
    <g>
        <path d="M190 106.755V93.228l-89.994 5.553v2.421z"></path>
        <path d="M10 93.23v13.527l89.994-5.554v-2.42z"></path>
        <path d="M93.244 189.987h13.527l-5.553-89.994h-2.42z"></path>
        <path d="M106.781 10H93.253l5.553 89.994h2.421z"></path>
        <path d="m179.466 142.768 5.501-12.358-84.476-31.521-.985 2.211z"></path>
        <path d="m20.533 57.219-5.5 12.359 84.475 31.521.985-2.212z"></path>
        <path d="m57.234 179.458 12.359 5.5 31.521-84.476-2.212-.984z"></path>
        <path d="m142.79 20.52-12.358-5.501-31.521 84.476 2.211.984z"></path>
        <path d="m160.548 166.919 9.324-9.8-69.028-58.008-1.668 1.753z"></path>
        <path d="m39.477 33.055-9.325 9.8 69.028 58.009 1.669-1.754z"></path>
        <path d="m33.058 160.526 9.8 9.325 58.009-69.028-1.754-1.668z"></path>
        <path d="m166.916 39.451-9.801-9.324-58.008 69.028 1.754 1.668z"></path>
        <path d="m128.092 185.756 12.504-5.162-39.475-81.065-2.238.924z"></path>
        <path d="M71.905 14.228 59.401 19.39l39.475 81.065 2.238-.924z"></path>
        <path d="m14.241 128.084 5.162 12.504 81.065-39.475-.924-2.238z"></path>
        <path d="m185.784 71.907-5.162-12.504-81.065 39.475.924 2.238z"></path>
    </g>
</svg>