<?xml version="1.0" ?>

<!-- Uploaded to: SVG Repo, www.svgrepo.com, Generator: SVG Repo Mixer Tools -->
<svg width="40px" height="40px" viewBox="0 0 32 32" xmlns="http://www.w3.org/2000/svg" fill="red">

<defs>

<style>.cls-1{}.cls-2{fill:white;}</style>

</defs>

<title/>

<g data-name="Layer 20" id="Layer_20">

<path class="cls-1" d="M26.94,8.07a8,8,0,0,0-5.56-2.23A7.79,7.79,0,0,0,16,8.08a8,8,0,0,0-11.1.22A7.91,7.91,0,0,0,5,19.51l.4.36a.65.65,0,0,0,.13.16l9.89,9.68a1,1,0,0,0,.7.29h0a1,1,0,0,0,.7-.3l1.58-1.61a1,1,0,0,0,.28-.73,1,1,0,0,0-.33-.72A4.2,4.2,0,0,1,17,23.44a4.37,4.37,0,0,1,7.52-3,1,1,0,0,0,.71.31h0a1,1,0,0,0,.71-.3l.61-.62a1,1,0,0,0,.24-.39l.29-.28h0A7.85,7.85,0,0,0,26.94,8.07Z"/>

<path class="cls-2" d="M21.31,19.08A4.37,4.37,0,0,0,17,23.44a4.41,4.41,0,0,0,4.36,4.37,4.37,4.37,0,0,0,4.37-4.37,4.37,4.37,0,0,0-4.37-4.36Z"/>

<path class="cls-2" d="M25.91,19A6.36,6.36,0,1,0,17,28.12a6.22,6.22,0,0,0,4.3,1.69,6.38,6.38,0,0,0,6.37-6.37A6.28,6.28,0,0,0,25.91,19Zm-4.6,8.77A4.41,4.41,0,0,1,17,23.44a4.37,4.37,0,0,1,4.36-4.36,4.37,4.37,0,0,1,4.37,4.36A4.37,4.37,0,0,1,21.31,27.81Z"/>

<path class="cls-1" d="M24.2,21.42a1,1,0,0,0-1.41-.14l-2.62,2.14-.41-.51a1,1,0,0,0-1.56,1.26l1,1.29a1,1,0,0,0,.68.37H20a1.05,1.05,0,0,0,.64-.22l3.4-2.78A1,1,0,0,0,24.2,21.42Z"/>

</g>

</svg>