<svg preserveAspectRatio="xMidYMid meet" data-bbox="17 10 167 180" xmlns="http://www.w3.org/2000/svg" viewBox="17 10 167 180" height="200" width="200" data-type="shape" role="presentation" aria-hidden="true" aria-label="" fill="#b3f5a0">
    <g>
        <path d="M39.744 118.167c23.998-4.987 41.86-11.116 53.571-18.383-11.86-6.698-29.946-13.04-54.243-19.026C24.349 77.196 17 71.068 17 62.375q0-7.268 4.714-11.33t11-4.063q9.203 0 23.792 16.141 14.59 16.139 39.73 30.035v-5.56q0-17.743-5.947-35.486C86.324 40.285 84.34 31.945 84.34 27.1q0-8.338 4.824-12.718Q93.993 10 100.724 10q7.855 0 12.01 4.863 4.153 4.835 4.152 12.237c0 3.243-2.094 10.866-6.285 22.893-4.189 12.043-6.136 26.418-5.835 43.165 12.308-8.249 19.81-13.362 22.502-15.356 2.712-1.995 5.93-4.917 9.688-8.764 10.794-10.99 17.507-17.421 20.145-19.276 2.62-1.852 6.265-2.78 10.922-2.78 4.49 0 8.288 1.531 11.356 4.615 3.086 3.064 4.621 6.769 4.621 11.1 0 8.8-6.772 14.536-20.315 17.19-22.594 4.473-41.113 11.1-55.555 19.9l3.836 2.119c11.84 6.681 29.254 12.221 52.224 16.622 13.205 2.547 19.81 8.729 19.81 18.528q0 7.856-5.835 11.597c-3.89 2.476-7.707 3.724-11.448 3.724-6.285 0-14.815-6.074-25.588-18.241q-16.16-18.223-33.22-26.241l-3.143-1.479v2.993q0 25.224 6.396 42.007 6.398 16.781 6.397 20.628-.001 7.054-5.049 12.505-5.05 5.45-13.13 5.451-7.408 0-11.673-5.13-4.266-5.13-4.266-12.399.001-1.925 7.633-26.828t5.163-36.234l-.673-2.993q-19.08 10.046-35.688 28.003-16.61 17.956-26.935 17.956-8.08 0-12.01-4.49t-3.928-9.62c-.006-10.265 7.57-16.962 22.74-20.098"></path>
    </g>
</svg>