<svg preserveAspectRatio="xMidYMid meet" data-bbox="8 40.006 183.999 119.59" xmlns="http://www.w3.org/2000/svg" viewBox="8 40.006 183.999 119.59" height="200" width="200" data-type="shape" role="presentation" aria-hidden="true" aria-label="" fill="#fee1d1">
    <g>
        <path d="M40.3 43.825a2 2 0 0 0-1.636-3.65zM24.586 55.3l-1.683-1.08zm-12.705 52.56-1.888.66zm65.344-12.207-1.846-.77zM58.49 85.724l-.437-1.951zm-28.422 35.709-1.99.191zm64.703 36.163-.002-2zm58.49-12.206-.76-1.85zm38.675-20.089a2 2 0 0 0-1.439-2.435l-17.434-4.48a2 2 0 1 0-.995 3.874l15.496 3.982-3.982 15.497a2 2 0 1 0 3.874.995zM38.664 40.175c-7.162 3.208-12.485 8.942-15.761 14.044l3.366 2.161c2.994-4.663 7.779-9.754 14.03-12.555zM22.903 54.219c-4.627 7.205-9.41 16.204-12.27 25.645-2.854 9.425-3.847 19.478-.639 28.656l3.776-1.32c-2.823-8.076-2.03-17.191.692-26.177 2.717-8.97 7.3-17.625 11.807-24.643zM9.994 108.52c2.677 7.657 7.98 12.101 14.51 14.003 6.425 1.871 13.917 1.256 21.165-.843 7.272-2.105 14.473-5.751 20.407-10.16 5.904-4.388 10.722-9.658 12.995-15.095l-3.69-1.543c-1.891 4.523-6.096 9.27-11.69 13.427-5.565 4.135-12.338 7.562-19.134 9.529-6.82 1.974-13.489 2.43-18.935.844-5.341-1.555-9.62-5.097-11.852-11.482zm69.077-12.095c1.398-3.344 1.568-6.278.316-8.656-1.232-2.34-3.565-3.607-5.96-4.274-4.753-1.324-11.096-.68-15.373.278l.874 3.903c4.049-.906 9.62-1.388 13.425-.328 1.885.526 2.992 1.33 3.495 2.284.483.918.681 2.502-.468 5.25zM58.054 83.773c-17.001 3.806-31.76 19.346-29.976 37.851l3.982-.383c-1.545-16.027 11.336-30.088 26.868-33.565zm-29.976 37.851c1.549 16.071 12.4 25.609 25.579 31.049 13.132 5.422 28.882 6.937 41.118 6.923l-.005-4c-12.002.013-27.152-1.486-39.587-6.62-12.387-5.114-21.768-13.671-23.123-27.735zm66.697 37.972c20.497-.022 40.461-4.643 59.246-12.356l-1.519-3.7c-18.387 7.549-37.836 12.034-57.732 12.056zm59.246-12.356c13.564-5.569 24.862-13.543 36.997-20.715l-2.036-3.444c-12.489 7.382-23.272 15.036-36.48 20.459z"></path>
    </g>
</svg>