<svg preserveAspectRatio="xMidYMid meet" data-bbox="10 10 180 180" xmlns="http://www.w3.org/2000/svg" viewBox="10 10 180 180" height="200" width="200" data-type="color" role="presentation" aria-hidden="true" aria-label=""><defs><style>#comp-lzadfh9p svg [data-color="1"] {fill: #6d94ff;}
#comp-lzadfh9p svg [data-color="2"] {fill: #121F36;}</style></defs>
    <g>
        <path fill="#6d94ff" d="M190 100c0 49.706-40.294 90-90 90s-90-40.294-90-90 40.294-90 90-90 90 40.294 90 90" data-color="1"></path>
        <g clip-path="url(#8e6dab32-29d8-4963-9f40-aa01749321b9_comp-lzadfh9p)">
            <path fill="black" d="M116.731 98.01c12.471 0 22.581 5.444 22.581 12.159q0 .565-.094 1.116.047.215.071.435l.023.434v10.174c0 6.713-10.199 10.422-22.581 10.422-12.056 0-22.043-3.516-22.56-9.898l-.022-.623v-13.698a3.59 3.59 0 0 1 1.803-3.133c3.444-4.343 11.451-7.388 20.779-7.388M88.938 66.743c12.254 0 22.228 4.505 22.573 10.122l.009.3v13.896a3.474 3.474 0 0 1-6.925.406l-.023-.406.005-6.377c-4.058 1.798-9.569 2.903-15.639 2.903-6.068 0-11.577-1.104-15.634-2.902l.001 9.85c0 2.489 2.722 3.475 13.896 3.475a3.474 3.474 0 0 1 0 6.948l-2.06-.015c-5.021-.078-8.924-.459-11.839-1.323l.003 4.812c0 2.488 2.722 3.474 13.896 3.474a3.474 3.474 0 1 1 0 6.948l-2.06-.015c-5.021-.078-8.924-.458-11.839-1.322l.003 4.811c0 .342.563.984 2.275 1.725 2.548 1.104 6.529 1.749 11.621 1.749a3.474 3.474 0 0 1 0 6.948c-12.567 0-20.844-3.584-20.844-10.422V77.165l.02-.452c.514-5.546 10.418-9.97 22.561-9.97m43.429 52.198c-4.057 2.098-9.567 3.387-15.636 3.387-6.067 0-11.576-1.288-15.633-3.385v3.385l.663.421.642.357c.506.263 1.168.566 2.004.87 3.153 1.147 7.57 1.826 12.324 1.826s9.171-.679 12.324-1.826c2.328-.847 3.309-1.69 3.309-1.648l.007-.122-.007-.126zm-15.639-13.983c-4.971 0-9.533 1.038-12.676 2.731-1.054.567-1.857 1.162-2.386 1.714l-.284.325-.208.287-.076.134.026.085.05.087.208.289c.501.638 1.405 1.358 2.67 2.039 3.143 1.692 7.705 2.731 12.676 2.731s9.532-1.039 12.676-2.731c1.054-.567 1.857-1.162 2.386-1.714l.284-.325.208-.288.082-.153-.082-.154-.208-.287-.284-.325c-.529-.552-1.332-1.147-2.386-1.714-3.144-1.693-7.705-2.731-12.676-2.731M88.94 73.691c-5.354 0-10.276.918-13.668 2.413q-.573.254-1.046.508l-.448.252-.473.298.473.305.448.252.498.254.548.253.81.335c3.342 1.296 7.916 2.078 12.858 2.078 5.354 0 10.277-.918 13.668-2.413a15 15 0 0 0 1.047-.507l.447-.252.47-.302-.075-.054-.395-.247-.447-.252-.499-.254-.548-.254-.809-.334c-3.342-1.297-7.917-2.079-12.859-2.079" data-color="2"></path>
        </g>
        <defs fill="none">
            <clipPath id="8e6dab32-29d8-4963-9f40-aa01749321b9_comp-lzadfh9p">
                <path fill="#ffffff" d="M142.787 56.32v83.378H59.409V56.32z"></path>
            </clipPath>
        </defs>
    </g>
</svg>