<svg preserveAspectRatio="xMidYMid meet" data-bbox="10 10 180 180" xmlns="http://www.w3.org/2000/svg" viewBox="10 10 180 180" height="200" width="200" data-type="color" role="presentation" aria-hidden="true" aria-label=""><defs><style>#comp-lzadrcjm svg [data-color="1"] {fill: #CDF3F7;}
#comp-lzadrcjm svg [data-color="2"] {fill: #121F36;}</style></defs>
    <g>
        <path fill="#ccf3f7" d="M190 100c0 49.706-40.294 90-90 90s-90-40.294-90-90 40.294-90 90-90 90 40.294 90 90" data-color="1"></path>
        <path fill="black" d="m125.378 79.619-5.181 5.008a3.6 3.6 0 0 1-2.504 1.012 3.6 3.6 0 0 1-2.59-1.102 3.6 3.6 0 0 1 .09-5.09l5.181-5.005c1.43-1.38 3.722-1.344 5.091.086a3.6 3.6 0 0 1-.087 5.091m-41.374 4.918a3.6 3.6 0 0 1-5.094.094l-5.184-5.008a3.603 3.603 0 0 1-.087-5.095 3.603 3.603 0 0 1 5.095-.09l5.184 5.004a3.603 3.603 0 0 1 .086 5.095m-6.067 15.016a3.6 3.6 0 0 1-3.602 3.603h-7.206a3.602 3.602 0 1 1 0-7.206h7.206a3.6 3.6 0 0 1 3.602 3.603m57.644 0a3.6 3.6 0 0 1-3.603 3.603h-7.205a3.6 3.6 0 0 1-3.603-3.603 3.6 3.6 0 0 1 3.603-3.603h7.205a3.6 3.6 0 0 1 3.603 3.603m-39.63-25.22v-7.205a3.602 3.602 0 1 1 7.205 0v7.206a3.602 3.602 0 1 1-7.205 0m9.01 34.562a3.61 3.61 0 0 0-1.805 3.123v16.357h-7.205v-16.357a3.61 3.61 0 0 0-1.805-3.123 10.8 10.8 0 0 1-5.4-9.342c0-5.959 4.849-10.808 10.808-10.808s10.808 4.85 10.808 10.808c0 3.848-2.068 7.429-5.401 9.342M99.554 81.54c-9.933 0-18.014 8.081-18.014 18.014a18.03 18.03 0 0 0 7.206 14.397v14.425a7.21 7.21 0 0 0 7.205 7.205h7.205c3.974 0 7.206-3.231 7.206-7.205V113.95a18.04 18.04 0 0 0 7.205-14.397c0-9.933-8.081-18.014-18.013-18.014" data-color="2"></path>
    </g>
</svg>