<?xml version="1.0" encoding="utf-8"?>
<!-- Uploaded to: SVG Repo, www.svgrepo.com, Generator: SVG Repo Mixer Tools -->
<svg width="40px" height="40px" viewBox="0 0 1024 1024" class="icon"  version="1.1" xmlns="http://www.w3.org/2000/svg"><path d="M562.376182 627.935559h162.257155v243.385733H562.376182zM278.42616 485.960548h141.975011v141.975011H278.42616z" fill="#74E8AE" /><path d="M920.23639 437.592206l-79.62961-67.057322c-0.326619-0.338906-0.712624-0.578495-1.061769-0.893852l-278.405683-234.449261c-22.817284-19.222423-55.884685-19.152799-78.603676 0.178156L339.272593 257.14368v-75.415298c0-33.552722-27.293711-60.846433-60.846433-60.846433s-60.846433 27.293711-60.846433 60.846433v178.853313L103.036652 457.943974c-8.537156 7.249108-9.576399 20.054842-2.317053 28.580735 4.010559 4.724207 9.715648 7.149791 15.459645 7.149791 4.644344 0 9.309165-1.584974 13.122114-4.832738l47.715104-40.558146v390.188363c0 33.552722 27.293711 60.846433 60.846433 60.846433h547.618923c33.552722 0 60.846433-27.293711 60.846433-60.846433V428.389524l47.783704 40.239718a20.210472 20.210472 0 0 0 13.052491 4.763114 20.26781 20.26781 0 0 0 15.528244-7.219415c7.209177-8.565825 6.109524-21.36132-2.4563-28.580735zM805.762939 838.471979c0 11.180828-9.101317 20.282144-20.282145 20.282145H237.861871c-11.180828 0-20.282144-9.101317-20.282144-20.282145V413.804278l33.414498-28.402579c0.21092-0.178156 0.28976-0.438223 0.491465-0.623546 1.08839-0.999312 1.8604-2.222855 2.710224-3.438207 0.680884-0.976787 1.476443-1.85528 1.96586-2.917049 0.506823-1.08839 0.665525-2.293503 0.974739-3.477115 0.361432-1.402723 0.789416-2.749132 0.846753-4.19281 0.011263-0.280545 0.161774-0.517062 0.161774-0.800679V181.728382c0-11.180828 9.101317-20.282144 20.282144-20.282144s20.282144 9.101317 20.282145 20.282144V300.994641c0 16.186603 19.719007 29.144896 33.414497 15.449405l176.676532-150.165069c7.575728-6.456621 18.588638-6.477099 26.204297-0.059386l270.759307 228.011071v444.241317z" fill="#22C67F" /></svg>