<svg preserveAspectRatio="xMidYMid meet" data-bbox="0 0.001 182.575 10.187" xmlns="http://www.w3.org/2000/svg" viewBox="0 0.001 182.575 10.187" height="11" width="183" data-type="shape" role="presentation" aria-hidden="true" aria-label="">
    <g>
        <path d="M36.49.974a1.5 1.5 0 0 1-.877 1.93c-.814.306-1.49.582-2.045.828h96.749c4.196 0 8.428-.055 12.676-.11 10.386-.134 20.878-.27 31.233.39 1.359.086 2.836.342 4.117.677 1.219.318 2.473.76 3.238 1.314.203.148.45.357.647.642.203.294.415.766.326 1.348-.089.58-.431.97-.72 1.198a3 3 0 0 1-.877.461c-1.052.367-2.882.536-5.582.536-21.429 0-42.86-.865-64.265-1.728l-.04-.001c-21.428-.864-42.83-1.727-64.235-1.727-.632 0-1.658.034-2.898.075-2.98.099-7.196.238-10.136.046-.46-.03-.91-.07-1.335-.12H1.5a1.5 1.5 0 1 1 0-3h27.369c.116-.399.343-.711.53-.92.31-.346.721-.645 1.159-.91.887-.54 2.208-1.134 4.002-1.807a1.5 1.5 0 0 1 1.93.878m106.146 5.654c10.919.335 21.831.56 32.739.56l.264-.001a18 18 0 0 0-1.603-.181c-10.235-.652-20.543-.519-30.881-.385z" clip-rule="evenodd" fill="#79C99E" fill-rule="evenodd"></path>
    </g>
</svg>
