<svg xmlns="http://www.w3.org/2000/svg" id="notes" x="0" y="0" version="1.1" viewBox="0 0 29 29" xml:space="preserve"><path d="M26.627 2.374c-1.132-1.132-3.109-1.134-4.243 0l-2.121 2.121-.01.01H5.495c-2.206 0-4 1.794-4 4v15c0 2.206 1.794 4 4 4h15c2.206 0 4-1.794 4-4V8.747l.01-.01 2.121-2.121c.566-.566.879-1.32.879-2.121 0-.802-.313-1.556-.878-2.121zM15.526 14.888l-1.768.354.354-1.768 7.564-7.564 1.414 1.414-7.564 7.564zM5.495 6.505h12.758l-4 4H3.495v-2c0-1.103.898-2 2-2zm15 19h-15c-1.103 0-2-.897-2-2v-11h8.818a1.015 1.015 0 0 0-.102.279l-.707 3.535a1.002 1.002 0 0 0 1.176 1.176l3.535-.707a1.01 1.01 0 0 0 .511-.273l4.011-4.011h1.758v11a2.003 2.003 0 0 1-2 2.001zm4.717-20.303-.707.707-1.414-1.414.707-.707a1.023 1.023 0 0 1 1.414.001.997.997 0 0 1 0 1.413z"></path></svg>