<svg preserveAspectRatio="xMidYMid meet" data-bbox="6.998 24 186.006 152" xmlns="http://www.w3.org/2000/svg" viewBox="6.998 24 186.006 152" height="200" width="200" data-type="color" role="presentation" aria-hidden="true" aria-label=""><defs><style>#comp-lzdrxlb9 svg [data-color="1"] {fill: #121F36;}</style></defs>
    <g>
        <path fill="#121F36" d="M68.675 25.839a3 3 0 0 1 3.928-1.605c13.371 5.614 20.19 7.905 23.763 8.696 1.63.36 2.343.35 2.584.324l.13-.101a5.1 5.1 0 0 1 1.284-.767 5 5 0 0 1 2.058-.335c1.259.046 2.769.492 4.692 1.242 2.653 1.036 6.704 2.908 13.068 6.097h1.005a3 3 0 0 1 2.801 1.924 1024 1024 0 0 1 7.297 3.757c14.684 7.625 34.643 21.528 46.493 33.935 12.175 12.745 18.91 27.411 13.123 45.418-8.433 26.247-27.616 41.261-50.19 47.723-22.465 6.431-48.315 4.427-70.66-3.157-15.098-5.125-32.524-13.873-45.223-26.262-12.763-12.45-20.95-28.823-16.696-48.809 4.183-19.646 20.678-34.992 37.363-42.91 19.042-9.039 40.414-11.055 60.971-11.497a54 54 0 0 0-1.534-.63c-1.313-.512-2.047-.714-2.426-.791a5.56 5.56 0 0 1-2.465 1.066c-1.315.229-2.908.087-4.971-.37-4.156-.919-11.42-3.407-24.79-9.02a3 3 0 0 1-1.605-3.928m50.086 19.553c-24.23.04-49.169.82-70.693 11.037C32.4 63.865 17.663 77.97 14 95.169c-3.702 17.384 3.239 31.775 15.016 43.265 11.842 11.551 28.37 19.921 42.963 24.874 21.43 7.274 46.014 9.101 67.079 3.071 20.956-5.998 38.4-19.734 46.13-43.79 4.87-15.156-.452-27.612-11.749-39.439-11.291-11.82-30.672-25.355-44.92-32.754a923 923 0 0 0-9.759-5.004" clip-rule="evenodd" fill-rule="evenodd" data-color="1"></path>
    </g>
</svg>