<?xml version="1.0" ?>
<!-- Uploaded to: SVG Repo, www.svgrepo.com, Generator: SVG Repo Mixer Tools -->
<svg width="800px" height="800px" viewBox="0 0 64 64" xmlns="http://www.w3.org/2000/svg">
<defs>
<style>.cls-1{fill:#f0f4f7;}.cls-2{fill:#e0e9ee;}.cls-3{fill:#748a95;}.cls-4{fill:#efc89d;}.cls-5{fill:#ebb87f;}.cls-6{fill:#f6e782;}</style>
</defs>
<g id="Angel">
<path class="cls-1" d="M16.29,38.47A8.29,8.29,0,0,0,8,46.76v6.88a2.17,2.17,0,0,0,2.17,2.16H16l6.51-8.67Z" id="path77077-0"/>
<path class="cls-1" d="M47.71,38.47A8.29,8.29,0,0,1,56,46.76v6.88a2.17,2.17,0,0,1-2.17,2.16H48L41.5,47.13Z" id="path72402-6"/>
<path class="cls-2" d="M16.29,41.94a4.8,4.8,0,0,0-4.82,4.82v2.58a1,1,0,0,0,2,0V46.76a2.71,2.71,0,0,1,2.82-2.82,1,1,0,0,0,0-2Z" id="path77097"/>
<path class="cls-2" d="M47.71,41.94a1,1,0,0,0,0,2,2.71,2.71,0,0,1,2.82,2.82v2.58a1,1,0,0,0,2,0V46.76A4.8,4.8,0,0,0,47.71,41.94Z" id="path77913"/>
<path class="cls-3" d="M16.29,50.28V26.65a15.71,15.71,0,0,1,31.42,0V50.28Z" id="path33355-7-4"/>
<path class="cls-4" d="M33,55.8H48A1.52,1.52,0,0,0,49.5,54c-.58-2.92-2.7-5.07-5.28-6.57L36.9,43.13V40.47H27.1v2.66l-7.32,4.28c-2.58,1.5-4.7,3.65-5.28,6.57A1.52,1.52,0,0,0,16,55.8H31l1-.92Z" id="path123162-7-2-6"/>
<path class="cls-5" d="M27.1,40.47v2A8.36,8.36,0,0,0,32,44.19a8.36,8.36,0,0,0,4.9-1.72v-2Z" id="path203415"/>
<path class="cls-4" d="M41.94,33.69c-1.8,4.5-5.57,8.5-9.94,8.5s-8.14-4-9.94-8.5a14.15,14.15,0,0,1-1-6s11.75-2.76,15-6.2c2.23,3.28,7,6.2,7,6.2A14.15,14.15,0,0,1,41.94,33.69Z" id="path25222-7-2-6-7-26"/>
<path class="cls-6" d="M32,7.2a26.89,26.89,0,0,0-8,1.08,9,9,0,0,0-2.63,1.29,2.79,2.79,0,0,0-1.24,2.16,2.79,2.79,0,0,0,1.24,2.17A8.72,8.72,0,0,0,24,15.19a26.89,26.89,0,0,0,8,1.08,26.89,26.89,0,0,0,8-1.08,8.72,8.72,0,0,0,2.63-1.29,2.79,2.79,0,0,0,1.24-2.17,2.79,2.79,0,0,0-1.24-2.16A9,9,0,0,0,40,8.28,26.89,26.89,0,0,0,32,7.2Zm0,2a25.17,25.17,0,0,1,7.37,1,7.11,7.11,0,0,1,2,1c.41.32.46.51.46.58s0,.27-.46.59a7.11,7.11,0,0,1-2,1,25.17,25.17,0,0,1-7.37,1,25.17,25.17,0,0,1-7.37-1,7.11,7.11,0,0,1-2-1c-.41-.32-.46-.51-.46-.59s.05-.26.46-.58a7.11,7.11,0,0,1,2-1A25.17,25.17,0,0,1,32,9.2Z" id="path72742"/>
<path class="cls-5" d="M24.81,50.1a1,1,0,0,0,.18,2c3-.27,4.31.72,5.1,1.74a4.59,4.59,0,0,1,.89,2h2a4.59,4.59,0,0,1,.89-2c.79-1,2.13-2,5.1-1.74a1,1,0,0,0,.18-2Z" id="path75271"/>
</g>
</svg>