<?xml version="1.0" ?>
<!-- Uploaded to: SVG Repo, www.svgrepo.com, Generator: SVG Repo Mixer Tools -->
<svg width="800px" height="800px" viewBox="0 0 64 64" xmlns="http://www.w3.org/2000/svg">
<defs>
<style>.cls-1{fill:#748a95;}.cls-2{fill:#f6e782;}.cls-3{fill:#ebb87f;}.cls-4{fill:#e0e9ee;}.cls-5{fill:#617880;}.cls-6{fill:#efc89d;}</style>
</defs>
<g id="Pirate">
<path class="cls-1" d="M12.17,18.37c.54,3.62,3,9.33,7.55,9.33H44.28c4.54,0,7-5.71,7.55-9.33l-3.74-3.24c-2.82,1.29-5.53,3.43-8.59,2.93L35.17,9.7l-6.79.56-6,8.87-6.34-3Z" id="path106525-9"/>
<path class="cls-2" d="M32,8a7.46,7.46,0,0,0-7.46,7.46c0,2.06-2.93,3.13-4.38.31s-7.12-2-7.95.07a5.8,5.8,0,0,0,0,2.53,19,19,0,0,1,3-1.15c1.88-.51,2.31-.07,2.31-.07a5.88,5.88,0,0,0,6,3.27,5.13,5.13,0,0,0,4.11-5,4.43,4.43,0,0,1,8.86,0,5.13,5.13,0,0,0,4.11,5,5.88,5.88,0,0,0,6-3.27s.43-.44,2.31.07a19,19,0,0,1,3,1.15,5.8,5.8,0,0,0,0-2.53c-.83-2.08-6.5-2.9-7.95-.07s-4.38,1.75-4.38-.31A7.46,7.46,0,0,0,32,8Z" id="path112141-3"/>
<path class="cls-3" d="M27.1,40.89v2.43L25,44.56l7,6.56,7-6.56L36.9,43.32V40.89Z" id="path189450"/>
<path class="cls-1" d="M25,44.56l-5.21,3c-.44.26-.87.54-1.28.83l-.05,5.11L20.94,56H31l1-.88L33,56H43.06L45,53.54l.53-5.11c-.41-.29-.84-.57-1.28-.83l-5.21-3L37,47.48l-5,1-4.95-1Z" id="path123162-4-0"/>
<path class="cls-4" d="M18.5,48.43a9.44,9.44,0,0,0-4,5.75A1.52,1.52,0,0,0,16,56h5A14.25,14.25,0,0,0,18.5,48.43Zm27,0A14.25,14.25,0,0,0,43.06,56H48a1.52,1.52,0,0,0,1.49-1.82A9.44,9.44,0,0,0,45.5,48.43Z" id="path115119-7"/>
<path class="cls-5" d="M33,48.25l-1,.19-1-.19a.68.68,0,0,0,0,.19V56h2V48.44A1.37,1.37,0,0,0,33,48.25Z" id="path8886-6"/>
<path class="cls-4" d="M25,44.56v3.68A1.62,1.62,0,0,0,27,49.8l5-1.36Zm7,3.88,5,1.36a1.62,1.62,0,0,0,2-1.56V44.56Z" id="path116882-26"/>
<path class="cls-6" d="M32,23.46a22.69,22.69,0,0,0-12.29,4.18,18.74,18.74,0,0,0,1,5.08c2,5.13,6.33,9.67,11.29,9.67s9.25-4.54,11.29-9.67a18.73,18.73,0,0,0,1-5.09A22.72,22.72,0,0,0,32,23.46Z" id="path176655"/>
<path class="cls-1" d="M24,24.42a1,1,0,0,0-.91.75,1,1,0,0,0,.72,1.22,29.61,29.61,0,0,1,8.9,3.77,4.42,4.42,0,0,0-.14,1.1,4.21,4.21,0,0,0,7.26,2.91l1.77,1.54A1,1,0,1,0,42.9,34.2l-2.06-1.79A4.37,4.37,0,0,0,41,31.26a4.22,4.22,0,0,0-7.33-2.85,32.59,32.59,0,0,0-9.37-4A1.63,1.63,0,0,0,24,24.42Z" id="path109107-0"/>
<path class="cls-2" d="M32,22.24a32.75,32.75,0,0,0-12.44,2.24c0,1,.06,2.07.15,3.16A33.19,33.19,0,0,1,32,25.46a33.52,33.52,0,0,1,12.29,2.17c.09-1.08.14-2.17.15-3.15A32.75,32.75,0,0,0,32,22.24Z" id="path112833-6"/>
</g>
</svg>