<?xml version="1.0" ?>
<!-- Uploaded to: SVG Repo, www.svgrepo.com, Generator: SVG Repo Mixer Tools -->
<svg width="800px" height="800px" viewBox="0 0 64 64" xmlns="http://www.w3.org/2000/svg">
<defs>
<style>.cls-1{fill:#748a95;}.cls-2{fill:#e0e9ee;}.cls-3{fill:#ebb87f;}.cls-4{fill:#dd5891;}.cls-5{fill:#d9387c;}.cls-6{fill:#efc89d;}</style>
</defs>
<g id="Zombie">
<path class="cls-1" d="M16.9,48.69a9.44,9.44,0,0,0-3.37,5.39A1.61,1.61,0,0,0,15.11,56H48.89a1.61,1.61,0,0,0,1.58-1.92,9.44,9.44,0,0,0-3.37-5.39Z" id="path417232-2"/>
<path class="cls-2" d="M20.2,46.5l-1.1.64a14.26,14.26,0,0,0-2.2,1.55,16,16,0,0,0,3.78,2.13,2.8,2.8,0,0,1,1.45,1.59l.08.26a.91.91,0,0,0,1.18.6l1.65-.6a4.86,4.86,0,0,1,2-.19,35.79,35.79,0,0,0,5,.33c8.79,0,13.4-2.79,15.1-4.12a14.26,14.26,0,0,0-2.2-1.55l-1.1-.64Z" id="path115589-3-4"/>
<path class="cls-3" d="M26.83,37.93v4.69L20.2,46.5a25.46,25.46,0,0,0,23.6,0l-6.63-3.88V37.93Z" id="path123162-8-7-4"/>
<path class="cls-4" d="M32,8A13.19,13.19,0,0,0,18.81,21.19c0,.64,0,1.38.05,2.16L32,27l13.14-3.68c0-.78,0-1.52,0-2.16A13.18,13.18,0,0,0,32,8Z" id="path242982"/>
<path class="cls-5" d="M32,7a1,1,0,0,0-1,1V23.35a1,1,0,0,0,2,0V8A1,1,0,0,0,32,7Z" id="path206476"/>
<path class="cls-5" d="M28.71,17.69a5.24,5.24,0,0,0-2.07.76,1,1,0,0,0-.32,1.38h0a1,1,0,0,0,1.38.31h0a4.42,4.42,0,0,1,3.85,0,1,1,0,0,0,1.34-.44h0a1,1,0,0,0-.43-1.34h0A6.8,6.8,0,0,0,28.71,17.69Z" id="path206591"/>
<path class="cls-5" d="M25.76,15.1A1,1,0,0,0,24.7,16a1,1,0,0,0,.92,1.07h0A1.59,1.59,0,0,1,27,18a3.34,3.34,0,0,1,.38,1,1,1,0,0,0,1.17.81h0a1,1,0,0,0,.8-1.17A5.41,5.41,0,0,0,28.69,17,3.75,3.75,0,0,0,25.76,15.1Z" id="path206706"/>
<path class="cls-5" d="M28.88,10.93a5.13,5.13,0,0,0-1.9.63,1,1,0,0,0-.37,1.36h0a1,1,0,0,0,1.37.37h0c1.34-.77,3.65,0,3.65,0a1,1,0,0,0,1.3-.56,1,1,0,0,0-.56-1.3A7.37,7.37,0,0,0,28.88,10.93Z" id="path206821"/>
<path class="cls-5" d="M23.74,17.91a4.65,4.65,0,0,0-4.17,1A7.7,7.7,0,0,0,18,20.52a1,1,0,0,0,.27,1.39h0a1,1,0,0,0,1.39-.27h0a5.77,5.77,0,0,1,1.11-1.16,2.58,2.58,0,0,1,2.37-.65,1,1,0,1,0,.56-1.92Z" id="path206936"/>
<path class="cls-5" d="M22.06,11.35a1,1,0,0,0-.65.41,1,1,0,0,0,.23,1.39l2,1.47a1,1,0,0,0,1.4-.23h0a1,1,0,0,0-.23-1.4h0L22.8,11.53A1,1,0,0,0,22.06,11.35Z" id="path207454"/>
<path class="cls-5" d="M35.29,17.69a6.8,6.8,0,0,0-3.74.63,1,1,0,0,0-.44,1.34h0a1,1,0,0,0,1.34.44h0a4.42,4.42,0,0,1,3.85,0,1,1,0,0,0,1.38-.31h0a1,1,0,0,0-.32-1.38h0A5.24,5.24,0,0,0,35.29,17.69Z" id="path207854"/>
<path class="cls-5" d="M38.24,15.1A3.75,3.75,0,0,0,35.31,17a5.41,5.41,0,0,0-.63,1.62,1,1,0,1,0,2,.36h0A3.34,3.34,0,0,1,37,18a1.59,1.59,0,0,1,1.35-.92A1,1,0,0,0,39.3,16h0A1,1,0,0,0,38.24,15.1Z" id="path207856"/>
<path class="cls-5" d="M35.12,10.93a7.37,7.37,0,0,0-3.49.49,1,1,0,0,0-.56,1.3,1,1,0,0,0,1.3.56s2.31-.76,3.65,0a1,1,0,0,0,1.37-.37h0A1,1,0,0,0,37,11.56h0A5.13,5.13,0,0,0,35.12,10.93Z" id="path207858"/>
<path class="cls-5" d="M40.26,17.91a1,1,0,1,0,.56,1.92,2.58,2.58,0,0,1,2.37.65,5.77,5.77,0,0,1,1.11,1.16,1,1,0,0,0,1.39.27h0A1,1,0,0,0,46,20.52h0a7.7,7.7,0,0,0-1.53-1.61A4.65,4.65,0,0,0,40.26,17.91Z" id="path207860"/>
<path class="cls-5" d="M41.94,11.35a1,1,0,0,0-.74.18L39.15,13a1,1,0,0,0-.23,1.39h0a1,1,0,0,0,1.4.23h0l2-1.47a1,1,0,0,0,.23-1.39A1,1,0,0,0,41.94,11.35Z" id="path207862"/>
<path class="cls-6" d="M45.14,23.35H18.86a27.27,27.27,0,0,0,1.22,8.08C22.23,36.84,26.76,41.64,32,41.64s9.76-4.8,11.92-10.21A27.27,27.27,0,0,0,45.14,23.35Z" id="path25222-7-2-27-2"/>
<path class="cls-3" d="M40.49,29.3l-2.21.59a3.49,3.49,0,0,0-2.57,3.36v2.12a1,1,0,0,0,2,0V33.25a1.47,1.47,0,0,1,1.09-1.43L41,31.23A1,1,0,0,0,41.72,30h0A1,1,0,0,0,40.49,29.3Z" id="path246018-3-4-6-6"/>
<path class="cls-3" d="M23.51,29.3A1,1,0,1,0,23,31.23h0l2.21.59a1.47,1.47,0,0,1,1.09,1.43v2.12a1,1,0,0,0,2,0V33.25a3.49,3.49,0,0,0-2.57-3.36Z" id="path131420-1"/>
</g>
</svg>