<?xml version="1.0" ?>
<!-- Uploaded to: SVG Repo, www.svgrepo.com, Generator: SVG Repo Mixer Tools -->
<svg width="800px" height="800px" viewBox="0 0 64 64" xmlns="http://www.w3.org/2000/svg">
<defs>
<style>.cls-1{fill:#efc89d;}.cls-2{fill:#f0f4f7;}.cls-3{fill:#748a95;}.cls-4{fill:#ebb87f;}.cls-5{fill:#f6e782;}.cls-6{fill:#e5936b;}</style>
</defs>
<g data-name="Ghost Bride" id="Ghost_Bride">
<path class="cls-1" d="M36.9,40.89v2.43l7.32,4.28c2.58,1.51,4.7,3.66,5.28,6.58A1.52,1.52,0,0,1,48,56h-4.2L32,52.89,20.19,56H16a1.52,1.52,0,0,1-1.49-1.82c.58-2.92,2.7-5.07,5.28-6.58l7.32-4.28V40.89Z" id="path123162-6-20"/>
<path class="cls-2" d="M43.81,56a6.21,6.21,0,0,0-10-5,2.74,2.74,0,0,1-3.72,0,6.16,6.16,0,0,0-3.73-1.25A6.22,6.22,0,0,0,20.19,56Z" id="path236988-6"/>
<path class="cls-3" d="M17.92,19.79a16,16,0,0,0-1.16,6V36a4.08,4.08,0,0,0,2.37,3.61,24.25,24.25,0,0,0,8,1.32H37a24.26,24.26,0,0,0,8-1.32A4.08,4.08,0,0,0,47.33,36V25.8a16,16,0,0,0-1.16-6L32,13.41Z" id="path240026-59"/>
<path class="cls-2" d="M43.81,56a6.21,6.21,0,0,0-10-5,2.74,2.74,0,0,1-3.72,0,6.16,6.16,0,0,0-3.73-1.25A6.22,6.22,0,0,0,20.19,56Z" id="path453839"/>
<path class="cls-4" d="M27.1,40.89v2a8.75,8.75,0,0,0,9.8,0v-2Z" id="path220221"/>
<path class="cls-1" d="M19.74,28.06a18.19,18.19,0,0,0,1,4.66c2,5.13,6.33,9.67,11.29,9.67s9.25-4.54,11.29-9.67h0a20.82,20.82,0,0,0,1.06-5.65,32.21,32.21,0,0,1-9-4.47C31.31,25.4,25.87,28.06,19.74,28.06Z" id="path238266-1"/>
<path class="cls-5" d="M16.9,19.17,15.19,9.93A1.28,1.28,0,0,1,17,8.57L23.42,12l6.26-3.39a4.84,4.84,0,0,1,4.64,0L40.58,12,47,8.57a1.28,1.28,0,0,1,1.85,1.36L47.1,19.17a.79.79,0,0,1-.91.64A89,89,0,0,0,32,18.74a89,89,0,0,0-14.19,1.07A.79.79,0,0,1,16.9,19.17Z" id="path241303-9"/>
<path class="cls-4" d="M24.18,31.73a1,1,0,0,0-1.23.71h0a1,1,0,0,0,.71,1.23l2.21.59A1.46,1.46,0,0,1,27,35.69v1.15a1,1,0,0,0,2,0V35.69a3.48,3.48,0,0,0-2.57-3.36Z" id="path245540"/>
<path class="cls-4" d="M39.91,31.73l-2.21.6a3.48,3.48,0,0,0-2.58,3.36v1.15a1,1,0,0,0,2,0V35.69a1.47,1.47,0,0,1,1.1-1.43l2.21-.59a1,1,0,0,0-.52-1.94Z" id="path246018"/>
<path class="cls-4" d="M32,30.06a1,1,0,0,0-1,1v1.48a1,1,0,0,0,2,0V31.06A1,1,0,0,0,32,30.06Z" id="path246053"/>
<path class="cls-6" d="M42.45,13.51a1,1,0,0,0-1,.81l-.37,2a1,1,0,0,0,.8,1.16h0a1,1,0,0,0,1.17-.8l.37-2a1,1,0,0,0-.8-1.17h-.18Z" id="path84720"/>
<path class="cls-6" d="M21.55,13.51h-.18a1,1,0,0,0-.8,1.17h0l.37,2a1,1,0,0,0,1.17.8h0a1,1,0,0,0,.8-1.16h0l-.37-2A1,1,0,0,0,21.55,13.51Z" id="path84718"/>
<path class="cls-6" d="M32,10.91a1,1,0,0,0-1,1v.5H29.67a1,1,0,0,0,0,2H31v1.44a1,1,0,0,0,2,0V14.41h1.33a1,1,0,0,0,0-2H33v-.5A1,1,0,0,0,32,10.91Z" id="path246832"/>
<path class="cls-4" d="M29.17,44.1a1,1,0,0,0-.66,1.25l.6,2a1,1,0,0,0,1.25.67h0A1,1,0,0,0,31,46.79h0l-.61-2A1,1,0,0,0,29.17,44.1Z" id="path251605"/>
<path class="cls-4" d="M34.83,44.1a1,1,0,0,0-1.25.67l-.61,2A1,1,0,0,0,33.64,48h0a1,1,0,0,0,1.25-.67h0l.6-2A1,1,0,0,0,34.83,44.1Z" id="path251687"/>
</g>
</svg>