<?xml version="1.0" ?>
<!-- Uploaded to: SVG Repo, www.svgrepo.com, Generator: SVG Repo Mixer Tools -->
<svg width="800px" height="800px" viewBox="0 0 64 64" xmlns="http://www.w3.org/2000/svg">
<defs>
<style>.cls-1{fill:#efc89d;}.cls-2{fill:#f6e782;}.cls-3{fill:#e5936b;}.cls-4{fill:#748a95;}.cls-5{fill:#f0f4f7;}.cls-6{fill:#d0e1e8;}.cls-7{fill:#ebb87f;}.cls-8{fill:#e0e9ee;}</style>
</defs>
<g id="Gnome">
<path class="cls-1" d="M27.57,40.85v3.68l-1.92,1.11L32,51.58l6.35-5.94-1.92-1.11V40.85Z" id="path189450-3-1-3"/>
<path class="cls-2" d="M25.65,45.64,20.93,48.4c-.39.23-.78.48-1.15.75l0,4.62L22,56h9l1-.71L33,56h9l1.73-2.23.48-4.62c-.37-.27-.76-.52-1.15-.75l-4.72-2.76-1.87,2.65L32,49.16l-4.48-.87Z" id="path123162-4-0-7-4-1"/>
<path class="cls-3" d="M33,49l-1,.19L31,49a1.11,1.11,0,0,0,0,.19V56h2V49.16A1.11,1.11,0,0,0,33,49Z" id="path8886-6-6-5"/>
<path class="cls-4" d="M19.78,49.15a8.51,8.51,0,0,0-3.62,5.2A1.38,1.38,0,0,0,17.51,56H22A12.94,12.94,0,0,0,19.78,49.15Zm24.44,0A12.94,12.94,0,0,0,42,56h4.48a1.38,1.38,0,0,0,1.35-1.65A8.51,8.51,0,0,0,44.22,49.15Z" id="path115119-7-3-7-0"/>
<path class="cls-5" d="M25.65,45.64V49a1.47,1.47,0,0,0,1.86,1.41L32,49.16ZM32,49.16l4.49,1.23A1.47,1.47,0,0,0,38.35,49V45.64Z" id="path116882-26-6-4-3"/>
<path class="cls-1" d="M42.31,29c0-2.33,0-4.76,0-4.76s-3-3.65-10.29-3.65-10.29,3.65-10.29,3.65,0,2.43,0,4.76c0,0,.42,4.59,2.38,5.67,4.35,2.39,12.15,2.21,16.09,0C42.09,33.53,42.31,29,42.31,29Z" id="path195145-6"/>
<path class="cls-5" d="M21.69,29c0,2,0,3.9,0,4a10.34,10.34,0,0,0,20.68,0c0-.13,0-2.06,0-4-1.05,5.51-4.32,2.38-8.23,1.33H29.92C26,31.33,22.74,34.46,21.69,29Z" id="path185151-8"/>
<path class="cls-6" d="M28.52,34.7a.56.56,0,0,0-.55.55,4,4,0,0,0,8.06,0,.56.56,0,0,0-.55-.55Z" id="path185496-9"/>
<path class="cls-5" d="M42.82,22.4l-2.7-1-18.94.92V20.06c0-4.58,5.83-9.32,8.93-11.51a3.54,3.54,0,0,1,3.78,0c3.1,2.19,8.93,6.93,8.93,11.51V22.4Z" id="path194662-0"/>
<path class="cls-7" d="M34.12,30A2.12,2.12,0,1,1,32,27.86,2.12,2.12,0,0,1,34.12,30Z" id="path185044-7"/>
<path class="cls-8" d="M32,18.84a35.19,35.19,0,0,0-12,2,2,2,0,0,0-1,2.44,1.65,1.65,0,0,0,2.17,1.15A31.32,31.32,0,0,1,32,22.65a31.32,31.32,0,0,1,10.85,1.74A1.65,1.65,0,0,0,45,23.24a2,2,0,0,0-1-2.43A35,35,0,0,0,32,18.84Z" id="path344568-2"/>
</g>
</svg>