<?xml version="1.0" ?>
<!-- Uploaded to: SVG Repo, www.svgrepo.com, Generator: SVG Repo Mixer Tools -->
<svg width="800px" height="800px" viewBox="0 0 64 64" xmlns="http://www.w3.org/2000/svg">
<defs>
<style>.cls-1{fill:#ebb87f;}.cls-2{fill:#748a95;}.cls-3{fill:#f0f4f7;}.cls-4{fill:#efc89d;}.cls-5{fill:#e0e9ee;}.cls-6{fill:#d6e0e9;}.cls-7{fill:#dd5891;}</style>
</defs>
<g id="Nurse">
<path class="cls-1" d="M27.1,38.14v5.18L25,44.56l7,8.91,7-8.91L36.9,43.32V38.14Z" id="path161600"/>
<path class="cls-2" d="M20.63,16.79a11.23,11.23,0,0,0-2.71,3.15,14,14,0,0,0-1.16,5.86V36a4.08,4.08,0,0,0,2.37,3.61,24.25,24.25,0,0,0,8,1.32H37a24.26,24.26,0,0,0,8-1.32A4.08,4.08,0,0,0,47.33,36V25.8a14,14,0,0,0-1.16-5.86,11.23,11.23,0,0,0-2.71-3.15Z" id="path240026-5-7"/>
<path class="cls-3" d="M19.82,11.31a26,26,0,0,0,1.79,8.53,2.85,2.85,0,0,0,2.5,1.67H39.89a2.85,2.85,0,0,0,2.5-1.67,26,26,0,0,0,1.79-8.53S41.4,8,32,8,19.82,11.31,19.82,11.31Z" id="path9467-7"/>
<path class="cls-4" d="M35.33,22.6c-4,2.8-9.46,5.46-15.59,5.46a18.19,18.19,0,0,0,1,4.66c2,5.13,6.33,9.67,11.29,9.67s9.25-4.54,11.29-9.67a20.82,20.82,0,0,0,1.06-5.65A32.21,32.21,0,0,1,35.33,22.6Z" id="path238266-7-6"/>
<path class="cls-3" d="M39,44.56,36.88,47.7,32,48.44l-4.88-.74L25,44.56l-5.21,3c-2.58,1.51-4.7,3.66-5.28,6.58A1.52,1.52,0,0,0,16,56H31l1-.92L33,56H48a1.52,1.52,0,0,0,1.49-1.82c-.58-2.92-2.7-5.07-5.28-6.58Z" id="path123162-6-3-3"/>
<path class="cls-5" d="M33,48.29l-1,.15-1-.15a.77.77,0,0,0,0,.15V56h2V48.44A.76.76,0,0,0,33,48.29Z" id="path8886"/>
<path class="cls-6" d="M25,44.56v3.68A1.62,1.62,0,0,0,27,49.8l5-1.36Zm7,3.88,5,1.36a1.62,1.62,0,0,0,2-1.56V44.56Z" id="path162663"/>
<path class="cls-1" d="M24.18,31.73a1,1,0,0,0-1.23.71h0a1,1,0,0,0,.71,1.23l2.21.59A1.46,1.46,0,0,1,27,35.69v1.15a1,1,0,0,0,2,0V35.69a3.48,3.48,0,0,0-2.57-3.36Z" id="path245540-6"/>
<path class="cls-1" d="M39.91,31.73l-2.21.6a3.48,3.48,0,0,0-2.58,3.36v1.15a1,1,0,0,0,2,0V35.69a1.47,1.47,0,0,1,1.1-1.43l2.21-.59a1,1,0,0,0-.52-1.94Z" id="path246018-2"/>
<path class="cls-1" d="M32,30.06a1,1,0,0,0-1,1v1.48a1,1,0,0,0,2,0V31.06A1,1,0,0,0,32,30.06Z" id="path246053-9"/>
<path class="cls-7" d="M32.13,11.5a1,1,0,0,0-1,1v1.68H29.46a1,1,0,0,0,0,2h1.67v1.67a1,1,0,1,0,2,0V16.18h1.68a1,1,0,0,0,0-2H33.13V12.5A1,1,0,0,0,32.13,11.5Z" id="path12039"/>
</g>
</svg>