<?xml version="1.0" ?>
<!-- Uploaded to: SVG Repo, www.svgrepo.com, Generator: SVG Repo Mixer Tools -->
<svg width="800px" height="800px" viewBox="0 0 64 64" xmlns="http://www.w3.org/2000/svg">
<defs>
<style>.cls-1{fill:#748a95;}.cls-2{fill:#f0f4f7;}.cls-3{fill:#ebb87f;}.cls-4{fill:#efc89d;}.cls-5{fill:#e0e9ee;}.cls-6{fill:#d0e1e8;}</style>
</defs>
<g id="Scientist">
<path class="cls-1" d="M27.35,41a5,5,0,0,1-8.57-1.85A5,5,0,0,1,16.66,30a5.11,5.11,0,0,1-.43-2,5.06,5.06,0,0,1,1.24-3.32H46.53A5.06,5.06,0,0,1,47.77,28a5.11,5.11,0,0,1-.43,2,5,5,0,0,1-2.12,9.09A5,5,0,0,1,36.65,41Z" id="path62769-5-3"/>
<path class="cls-2" d="M19.55,20.17l1.81-9.56a3.1,3.1,0,0,1,3-2.52H39.6a3.1,3.1,0,0,1,3,2.52l1.81,9.56S43.35,23.45,32,23.45,19.55,20.17,19.55,20.17Z" id="rect58096-1-7"/>
<path class="cls-3" d="M27.1,40.8v2.43L25,44.47l7,8,7-8L36.9,43.23V40.8Z" id="path282434"/>
<path class="cls-4" d="M44.49,24.66A26.77,26.77,0,0,1,43.87,31C42.15,36.74,37.49,42.3,32,42.3S21.85,36.74,20.13,31a26.77,26.77,0,0,1-.62-6.33L32,23.05Z" id="path50926-9-0"/>
<path class="cls-5" d="M17.24,20.17H46.76a2.25,2.25,0,1,1,0,4.49H17.24a2.25,2.25,0,1,1,0-4.49Z" id="rect51499-1-0"/>
<path class="cls-5" d="M30,30.19a1,1,0,0,0,0,2h4a1,1,0,1,0,0-2Z" id="path151810-3"/>
<path class="cls-2" d="M27.4,27.58A3.62,3.62,0,1,0,31,31.19,3.61,3.61,0,0,0,27.4,27.58Zm9.2,0a3.62,3.62,0,1,0,3.61,3.61A3.63,3.63,0,0,0,36.6,27.58Z" id="path151670-6-0"/>
<path class="cls-2" d="M37.76,45.16,32,48.36l-4.87-2.71.24,1.71-1.55,2.21,1.7,6.34H31L32,55l1,.88h3.48l1.7-6.34-.65-2.77Z" id="path123162-93-7-2"/>
<path class="cls-6" d="M31.13,47.87a.91.91,0,0,0-.13.48v7.56h2V48.35a.91.91,0,0,0-.13-.48l-.87.48Z" id="path8886-6-7-3"/>
<path class="cls-1" d="M26.6,48.15,25,44.47l-5.21,3c-2.58,1.51-4.7,3.66-5.28,6.58A1.52,1.52,0,0,0,16,55.91H27.52l-1.7-6.35S26.84,48.71,26.6,48.15ZM39,44.47,37.4,48.15c-.24.56.78,1.42.78,1.42l-1.7,6.34H48a1.52,1.52,0,0,0,1.49-1.82c-.58-2.92-2.7-5.07-5.28-6.58Z" id="path225656-6"/>
<path class="cls-5" d="M25,44.47v3.68A1.62,1.62,0,0,0,27,49.71l5-1.35Zm7,3.89,5,1.35a1.62,1.62,0,0,0,2-1.56V44.47Z" id="path8851-3-4-6-2"/>
</g>
</svg>