<?xml version="1.0" ?>
<!-- Uploaded to: SVG Repo, www.svgrepo.com, Generator: SVG Repo Mixer Tools -->
<svg width="800px" height="800px" viewBox="0 0 64 64" xmlns="http://www.w3.org/2000/svg">
<defs>
<style>.cls-1{fill:#e0e9ee;}.cls-2{fill:#d0e1e8;}.cls-3{fill:#f0f4f7;}.cls-4{fill:#efc89d;}.cls-5{fill:#748a95;}.cls-6{fill:#ebb87f;}</style>
</defs>
<g id="Mummy">
<path class="cls-1" d="M37.17,36.91v5.71l7.73,4.52c2.72,1.58,5,3.85,5.57,6.94A1.61,1.61,0,0,1,48.89,56H15.11a1.61,1.61,0,0,1-1.58-1.92c.61-3.09,2.85-5.36,5.57-6.94l7.73-4.52V36.91Z" id="path123162-62-1"/>
<path class="cls-2" d="M26.83,39.05a1,1,0,0,0-1,1v2l-7.24,4.23c-2.86,1.67-5.36,4.15-6,7.6A2.63,2.63,0,0,0,15.11,57H48.89a2.63,2.63,0,0,0,2.56-3.12c-.68-3.45-3.18-5.93-6-7.6l-7.24-4.23v-2a1,1,0,0,0-2,0v2.57a1,1,0,0,0,.49.87l3.07,1.79-8.94,3.15-2-.72,5.32-5.49-1.44-1.39-3.37,3.48-1.71-1.07a1,1,0,0,0,.25-.62V40.05A1,1,0,0,0,26.83,39.05Zm-1.12,5.39,2.16,1.34L26.71,47l-3.3-1.19ZM42,46.6,44.4,48l.76.48-8.75,2-2.64-1Zm-20.85.5,22,7.9H37.26l-18-6.77L19.6,48Zm-3.83,2.54,1.75.66-4.32,4.59a.59.59,0,0,1-.24-.62A8.39,8.39,0,0,1,17.32,49.64Zm29.83.45a8.14,8.14,0,0,1,2.34,4.18A.6.6,0,0,1,49,55l-9.11-3.28Zm-26.06,1,3.08,1.16L20.38,55h-3Zm5.32,2L31.57,55H23.76Z" id="path18841"/>
<path class="cls-3" d="M20.84,33.1c2.35,4.69,6.47,8.53,11.16,8.53,5.24,0,9.76-4.79,11.92-10.2a26.25,26.25,0,0,0,1.21-7.71l-1.9-.64,1.94-.63c0-.45,0-.87,0-1.26a13.18,13.18,0,0,0-26.3-1.3L22,26.49Z" id="path4581"/>
<path class="cls-4" d="M18.88,19.89c0,.42-.07.86-.07,1.3,0,2.87.21,7.58,1.27,10.24.23.57.48,1.12.76,1.67l24.29-9.38c0-.44,0-.86,0-1.27Z" id="path15196-0"/>
<path class="cls-5" d="M30.33,24H23.46a3.44,3.44,0,0,0,6.87,0Z" id="path19895-3"/>
<path class="cls-1" d="M32,7a14.36,14.36,0,0,0-12.45,7.38h0a14.2,14.2,0,0,0-1.74,6.8c0,2.93.15,7.62,1.34,10.62,2.26,5.67,7,10.83,12.85,10.83S42.59,37.47,44.85,31.8c1.19-3,1.33-7.69,1.33-10.62A14.19,14.19,0,0,0,32,7Zm0,2a12.15,12.15,0,0,1,7.43,2.52L31,11.43,29.78,9.21A11.61,11.61,0,0,1,32,9Zm-4.21.74L30.71,15c-2.26-.27-4.59-.56-6.33-.75-.91-.11-1.59-.18-2.23-.24A12.21,12.21,0,0,1,27.79,9.74Zm4.34,3.7,9.37.1a12.19,12.19,0,0,1,1.78,3L33.16,15.29ZM21.29,15.36h0Zm-.28.53.4,0,2.75.29c2.28.26,5.31.63,8.34,1,5.72.71,10.8,1.36,11.42,1.44a12.31,12.31,0,0,1,.26,2.52v.17L20,19A12.49,12.49,0,0,1,21,15.89ZM19.82,21l23.64,2.31L21.34,31.83c-.11-.25-.23-.51-.33-.77-.93-2.33-1.2-7-1.2-9.88C19.81,21.12,19.82,21.05,19.82,21ZM44,25.22a29,29,0,0,1-.7,4.78l-5-2.59Zm-8.16,3.15,6.76,3.52a19.29,19.29,0,0,1-1.22,2.29l-8.23-4.77Zm-5.09,2,3.27,1.9-9.91,4.1a19.46,19.46,0,0,1-1.88-2.71Zm5.45,3.16,4,2.34a15.24,15.24,0,0,1-3.08,3l-5.05-3.63ZM30,36.09l5.31,3.82a8.13,8.13,0,0,1-3.26.72,9.72,9.72,0,0,1-6.36-2.76Z" id="path45458"/>
<path class="cls-6" d="M23.46,23a1,1,0,0,0-1,1h0a1,1,0,0,0,1,1h6.87a1,1,0,0,0,1-1h0a1,1,0,0,0-1-1H23.46Z" id="path19895"/>
</g>
</svg>