<?xml version="1.0" ?>
<!-- Uploaded to: SVG Repo, www.svgrepo.com, Generator: SVG Repo Mixer Tools -->
<svg width="800px" height="800px" viewBox="0 0 64 64" xmlns="http://www.w3.org/2000/svg">
<defs>
<style>.cls-1{fill:#92d39d;}.cls-2{fill:#74c782;}.cls-3{fill:#aaddb4;}</style>
</defs>
<g id="Alien">
<path class="cls-1" d="M26.5,40.16v3.11a3.68,3.68,0,0,1-2.74,3.57L18,48.39a7.88,7.88,0,0,0-5.54,5.47A1.77,1.77,0,0,0,14.31,56H49.69a1.77,1.77,0,0,0,1.87-2.14A7.88,7.88,0,0,0,46,48.39l-5.78-1.55a3.68,3.68,0,0,1-2.74-3.57V40.16Z" id="path19595-2"/>
<path class="cls-1" d="M19.44,24.94s-3.51.64-4.51,3.28a2.5,2.5,0,0,0,.88,2.48C17,31.63,19,32.78,21,32.25l1.38-3.66Z" id="path140665-5"/>
<path class="cls-2" d="M44.56,24.94s3.51.64,4.51,3.28a2.5,2.5,0,0,1-.88,2.48C47,31.63,45,32.78,43,32.25l-1.38-3.66Z" id="path19208-6"/>
<path class="cls-3" d="M18.42,7a3.4,3.4,0,0,0-2.4,5.8,3.43,3.43,0,0,0,4,.6l2.88,2.88a12.51,12.51,0,0,0-3.45,8.65c0,6.94,5.62,17.45,12.56,17.45S44.56,31.88,44.56,24.94a12.51,12.51,0,0,0-3.45-8.65L44,13.41A3.4,3.4,0,0,0,48,8a3.39,3.39,0,0,0-5.4,4l-3,3a12.58,12.58,0,0,0-15.24,0l-3-3a3.39,3.39,0,0,0-3-5Z" id="path16247-3"/>
<path class="cls-2" d="M29.82,27.61c-.82,1.43-3.47,1.45-4.9.62a3,3,0,0,1,3-5.17C29.34,23.88,30.65,26.18,29.82,27.61Z" id="path18316-5"/>
<path class="cls-2" d="M34.18,27.61c.82,1.43,3.47,1.45,4.9.62a3,3,0,1,0-3-5.17C34.66,23.88,33.35,26.18,34.18,27.61Z" id="path18535-3"/>
<path class="cls-2" d="M34.87,35.69a2.87,2.87,0,0,1-5.74,0c0-1.58,1.29-3.87,2.87-3.87S34.87,34.11,34.87,35.69Z" id="path136627-4"/>
<path class="cls-3" d="M23.35,49.74a1,1,0,0,0,0,2h5.1a1.3,1.3,0,0,1,1.12.65,1,1,0,1,0,1.73-1h0a3.3,3.3,0,0,0-2.85-1.65Z" id="path131588-6"/>
<path class="cls-3" d="M35.55,49.74a3.3,3.3,0,0,0-2.85,1.65,1,1,0,0,0,.36,1.37h0a1,1,0,0,0,1.36-.37,1.3,1.3,0,0,1,1.12-.65h5.1a1,1,0,0,0,0-2Z" id="path132344-1"/>
<path class="cls-3" d="M28.81,44.68A1,1,0,0,0,28.28,46l1,2.39a1,1,0,0,0,1.85-.78l-1-2.39A1,1,0,0,0,28.81,44.68Z" id="path133885"/>
<path class="cls-3" d="M35.19,44.68a1,1,0,0,0-1.31.53l-1,2.39a1,1,0,0,0,1.85.78l1-2.39A1,1,0,0,0,35.19,44.68Z" id="path133967"/>
</g>
</svg>