<?xml version="1.0" ?>
<!-- Uploaded to: SVG Repo, www.svgrepo.com, Generator: SVG Repo Mixer Tools -->
<svg width="800px" height="800px" viewBox="0 0 64 64" xmlns="http://www.w3.org/2000/svg">
<defs>
<style>.cls-1{fill:#ebb87f;}.cls-2{fill:#748a95;}.cls-3{fill:#f0f4f7;}.cls-4{fill:#efc89d;}</style>
</defs>
<g id="Satyr">
<path class="cls-1" d="M41.4,55.71H48a1.52,1.52,0,0,0,1.49-1.82c-.58-2.92-2.7-5.07-5.28-6.57L36.9,43V40.6H27.1V43l-7.32,4.28c-2.58,1.5-4.7,3.65-5.28,6.57A1.52,1.52,0,0,0,16,55.71H22.6l9.4-3.2Z" id="path123162-68-2"/>
<path class="cls-2" d="M41.4,55.71a3.56,3.56,0,0,0-2.8-3.47,3.69,3.69,0,0,0-2.28-2.62c-1.22-.64-2.66-.11-4.32-.11s-3.1-.53-4.31.11a3.69,3.69,0,0,0-2.28,2.62,3.55,3.55,0,0,0-2.81,3.47Z" id="path229930-6"/>
<path class="cls-2" d="M44.41,29.55c2.59-.45,4.48-4.64,4.48-7.27,0-3-2.42-7.35-5.4-7.35h-.15l-2.59-3.22a5.35,5.35,0,0,0-3-.92,5.24,5.24,0,0,0-1.11.12,5.39,5.39,0,0,0-9.26,0,5.24,5.24,0,0,0-1.11-.12,5.32,5.32,0,0,0-3,.92l-2.59,3.22h-.15c-3,0-5.4,4.37-5.4,7.35,0,2.63,1.89,6.82,4.47,7.27Z" id="path245790-7"/>
<path class="cls-3" d="M25.2,13.35l-3.63-3a1.24,1.24,0,0,0-2,1.33l1.5,4.63c.35,1.07,1.05,1.11,1.81.28a6.33,6.33,0,0,1,1.9-1.45C25.81,14.63,26.07,14.07,25.2,13.35Z" id="path20124"/>
<path class="cls-3" d="M38.8,13.35l3.63-3a1.24,1.24,0,0,1,2,1.33l-1.49,4.63c-.35,1.07-1,1.11-1.81.28a6.33,6.33,0,0,0-1.9-1.45C38.19,14.63,37.93,14.07,38.8,13.35Z" id="path245783-2"/>
<path class="cls-4" d="M44.37,23.16a3.4,3.4,0,0,1-5.56,2.71,2.81,2.81,0,0,1-3.48.39,4.07,4.07,0,0,1-6.62,0,2.84,2.84,0,0,1-1.5.43,2.81,2.81,0,0,1-2-.83,3.43,3.43,0,0,1-5.61-2.65l0,2.61a23.12,23.12,0,0,0,1.12,6.61C22.75,37.56,27,42.1,32,42.1s9.25-4.54,11.29-9.66a23.27,23.27,0,0,0,1.12-6.67Z" id="path246268-0"/>
<path class="cls-2" d="M33.91,39.3c0,1.08-.88,2.8-1.95,2.8S30,40.38,30,39.3a1.95,1.95,0,0,1,3.9,0Z" id="path248348-2"/>
</g>
</svg>