<?xml version="1.0" ?>
<!-- Uploaded to: SVG Repo, www.svgrepo.com, Generator: SVG Repo Mixer Tools -->
<svg width="800px" height="800px" viewBox="0 0 64 64" xmlns="http://www.w3.org/2000/svg">
<defs>
<style>.cls-1{fill:#ebb87f;}.cls-2{fill:#aaddb4;}.cls-3{fill:#92d39d;}.cls-4{fill:#748a95;}.cls-5{fill:#efc89d;}.cls-6{fill:#f6e782;}</style>
</defs>
<g id="Scarecrow">
<path class="cls-1" d="M27.84,41.78v3.46l-1.8,1,6,5.57,6-5.57-1.8-1V41.78Z" id="path189450-3-1"/>
<path class="cls-2" d="M26,46.29l-4.43,2.58c-.37.22-.73.46-1.08.71l0,4.34L22.6,56H31l1-.71L33,56h8.4L43,53.92l.45-4.34c-.35-.25-.71-.49-1.08-.71L38,46.29l-1.75,2.48L32,49.59l-4.21-.82Z" id="path123162-4-0-7-4"/>
<path class="cls-3" d="M33,49.4l-1,.19-1-.19a.58.58,0,0,0,0,.19V56h2V49.59A1.11,1.11,0,0,0,33,49.4Z" id="path8886-6-6"/>
<path class="cls-4" d="M20.53,49.58a8,8,0,0,0-3.4,4.88A1.3,1.3,0,0,0,18.4,56h4.2A12.13,12.13,0,0,0,20.53,49.58Zm22.94,0A12.13,12.13,0,0,0,41.4,56h4.2a1.3,1.3,0,0,0,1.27-1.55A8,8,0,0,0,43.47,49.58Z" id="path115119-7-3-7"/>
<path class="cls-4" d="M26,46.29v3.13a1.38,1.38,0,0,0,1.74,1.32L32,49.59Zm6,3.3,4.22,1.15A1.38,1.38,0,0,0,38,49.42V46.29Z" id="path116882-26-6-4"/>
<path class="cls-5" d="M41.66,33.5c0,.3,0,.6,0,.9a9.7,9.7,0,0,1-19.4,0c0-.3,0-.6,0-.9L32,31.81Z" id="path171095-3"/>
<path class="cls-2" d="M37.32,8.15,33.1,10.07a10,10,0,0,0-5,4.91L23.6,24.71,32,27l8.38-2.29-4.45-9.43a3.07,3.07,0,0,1,.52-3.38l2-2.18A1,1,0,0,0,37.32,8.15Z" id="rect49460-5-6-2"/>
<path class="cls-4" d="M23.6,24.71l-2.21,4.76L32,31.36l10.61-1.89-2.24-4.76Z" id="path54734-5-1-8"/>
<path class="cls-6" d="M34.37,27.09A2.38,2.38,0,1,1,32,24.71,2.39,2.39,0,0,1,34.37,27.09Z" id="path54838-4-0-9"/>
<path class="cls-2" d="M17.66,32.15a4,4,0,0,1,3.8-2.68H42.54a4,4,0,0,1,3.8,2.68,1.08,1.08,0,0,1-1.14,1.34H18.8A1.08,1.08,0,0,1,17.66,32.15Z" id="rect40308-61-6-7"/>
</g>
</svg>